#N canvas 0 25 1440 847 12;
#X declare -lib iemnet;
#X text 57 46 iemnet external;
#X obj 56 70 declare -lib iemnet;
#X obj 61 161 oscparse;
#X obj 61 192 list trim;
#X obj 61 232 route m5;
#X obj 60 269 list split 1, f 38;
#X obj 275 317 list fromsymbol;
#X obj 412 315 makefilename %d;
#X msg 412 256 0;
#X obj 192 417 spigot, f 12;
#X obj 274 379 ==, f 20;
#X obj 412 350 list fromsymbol;
#X obj 192 449 route list;
#X obj 192 480 route imu;
#X floatatom 412 286 5 0 0 0 - - - 0;
#X obj 412 225 loadbang;
#X obj 191 511 unpack f f f f f f, f 45;
#X floatatom 190 539 5 0 0 0 - - - 0;
#X floatatom 251 540 5 0 0 0 - - - 0;
#X floatatom 313 540 5 0 0 0 - - - 0;
#X floatatom 378 541 5 0 0 0 - - - 0;
#X floatatom 439 543 5 0 0 0 - - - 0;
#X floatatom 503 543 5 0 0 0 - - - 0;
#X text 457 286 <- change channel ID;
#X text 213 585 accelerometer;
#X text 411 586 gyroscope;
#X text 191 560 x;
#X text 249 561 y;
#X text 311 562 z;
#X text 379 562 x;
#X text 437 563 y;
#X text 499 564 z;
#X obj 60 131 iemnet/udpreceive 8000;
#X connect 2 0 3 0;
#X connect 3 0 4 0;
#X connect 4 0 5 0;
#X connect 5 0 6 0;
#X connect 5 1 9 0;
#X connect 6 0 10 0;
#X connect 7 0 11 0;
#X connect 8 0 14 0;
#X connect 9 0 12 0;
#X connect 10 0 9 1;
#X connect 11 0 10 1;
#X connect 12 0 13 0;
#X connect 13 0 16 0;
#X connect 14 0 7 0;
#X connect 15 0 8 0;
#X connect 16 0 17 0;
#X connect 16 1 18 0;
#X connect 16 2 19 0;
#X connect 16 3 20 0;
#X connect 16 4 21 0;
#X connect 16 5 22 0;
#X connect 32 0 2 0;
